<svg xmlns="http://www.w3.org/2000/svg" width="29.398" height="29.398" viewBox="0 0 29.398 29.398">
  <defs>
    <style>
      .cls-1 {
        fill: #ff5168;
      }
    </style>
  </defs>
  <path id="Icon_metro-weather" data-name="Icon metro-weather" class="cls-1" d="M20.162,8.319a1.131,1.131,0,0,0,1.131-1.131V4.926a1.131,1.131,0,1,0-2.261,0V7.188A1.131,1.131,0,0,0,20.162,8.319Zm8.794,2.98,1.6-1.6a1.131,1.131,0,0,0-1.6-1.6l-1.6,1.6a1.131,1.131,0,0,0,1.6,1.6ZM6.593,19.625H8.855a1.131,1.131,0,0,0,0-2.261H6.593a1.131,1.131,0,1,0,0,2.261Zm23.744-1.131a1.131,1.131,0,0,0,1.131,1.131H33.73a1.131,1.131,0,0,0,0-2.261H31.468A1.131,1.131,0,0,0,30.338,18.495ZM11.366,11.3a1.131,1.131,0,0,0,1.6-1.6l-1.6-1.6a1.131,1.131,0,0,0-1.6,1.6Zm1,8.327h2.261a5.653,5.653,0,1,1,11.077,0h2.261a7.542,7.542,0,0,0,.115-1.131,7.915,7.915,0,0,0-15.83,0,7.951,7.951,0,0,0,.115,1.131ZM33.73,21.887H6.593a1.131,1.131,0,1,0,0,2.261H33.73a1.131,1.131,0,0,0,0-2.261Zm0,4.523H6.593a1.131,1.131,0,1,0,0,2.261H33.73a1.131,1.131,0,0,0,0-2.261Zm0,4.523H6.593a1.131,1.131,0,1,0,0,2.261H33.73a1.131,1.131,0,1,0,0-2.261Z" transform="translate(-5.463 -3.796)"/>
</svg>
