<svg id="Icon_awesome-paint-brush" data-name="Icon awesome-paint-brush" xmlns="http://www.w3.org/2000/svg" width="28.267" height="28.267" viewBox="0 0 28.267 28.267">
  <path id="Icon_awesome-paint-brush-2" data-name="Icon awesome-paint-brush" d="M9.221,17.078A5.588,5.588,0,0,0,3.855,21.07a.843.843,0,0,1-.805.551c-.613,0-2.51-1.528-3.05-1.9,0,4.546,2.095,8.542,7.067,8.542,4.188,0,7.067-2.416,7.067-6.635a4.783,4.783,0,0,0-.054-.5L9.221,17.078ZM25.279,0a3.371,3.371,0,0,0-2.22.908C11.774,10.989,10.6,11.226,10.6,14.194a5.111,5.111,0,0,0,.482,2.137l3.523,2.936a5.08,5.08,0,0,0,1.236.167c3.429,0,5.416-2.51,11.658-14.159a5.681,5.681,0,0,0,.767-2.539A2.875,2.875,0,0,0,25.279,0Z" transform="translate(0.001)" fill="#fff"/>
</svg>
