<svg xmlns="http://www.w3.org/2000/svg" width="28.265" height="28.266" viewBox="0 0 28.265 28.266">
  <path id="Icon_awesome-pencil-alt" data-name="Icon awesome-pencil-alt" d="M27.489,7.846l-2.545,2.545a.663.663,0,0,1-.939,0L17.877,4.263a.663.663,0,0,1,0-.939L20.422.78a2.656,2.656,0,0,1,3.749,0L27.489,4.1A2.646,2.646,0,0,1,27.489,7.846Zm-11.8-2.335-14.5,14.5L.022,26.716a1.327,1.327,0,0,0,1.535,1.535l6.708-1.176,14.5-14.5a.663.663,0,0,0,0-.939L16.635,5.511a.67.67,0,0,0-.944,0ZM6.852,18.766a.77.77,0,0,1,0-1.093l8.5-8.5a.773.773,0,1,1,1.093,1.093l-8.5,8.5a.77.77,0,0,1-1.093,0ZM4.859,23.409h2.65v2l-3.561.624L2.231,24.32l.624-3.561h2Z" transform="translate(-0.002 -0.005)" fill="#fff"/>
</svg>
