<svg xmlns="http://www.w3.org/2000/svg" width="28.7" height="28.7" viewBox="0 0 28.7 28.7">
  <g id="Icon_awesome-eraser" data-name="Icon awesome-eraser" transform="translate(0 0)">
    <path id="Icon_awesome-eraser-2" data-name="Icon awesome-eraser" d="M27.912,17.749a3.394,3.394,0,0,0,0-4.349L18.943,3.151a2.46,2.46,0,0,0-3.805,0L.788,19.551a3.394,3.394,0,0,0,0,4.349l5.381,6.15a2.532,2.532,0,0,0,1.9.9H28.027a.726.726,0,0,0,.673-.769V27.619a.726.726,0,0,0-.673-.769H19.949l7.963-9.1ZM10.948,13.737l7.7,8.8L14.875,26.85H8.443L3.959,21.725l6.989-7.988Z" transform="translate(0 -2.25)" fill="#fff"/>
  </g>
</svg>
