<svg id="b6227929-6c72-4b42-8618-5fa12aebdeb9" data-name="Layer 1" xmlns="http://www.w3.org/2000/svg" viewBox="0 0 179.55 178.53"><defs><style>.b93028b8-5442-4a10-b606-ea161e6db6e1,.ed423f2e-13dd-4632-b856-4715e1b47b04{fill:none;stroke:#fff;stroke-miterlimit:10;}.ed423f2e-13dd-4632-b856-4715e1b47b04{stroke-width:5px;}.b93028b8-5442-4a10-b606-ea161e6db6e1{stroke-width:4px;}.b8d30b23-3d5d-4e6f-a178-181965bf796a{fill:#fff;}</style></defs><path class="ed423f2e-13dd-4632-b856-4715e1b47b04" d="M86.52,136.48a39.67,39.67,0,1,0-48.66,43" transform="translate(-4.93 -4.58)"/><path class="ed423f2e-13dd-4632-b856-4715e1b47b04" d="M151.54,179.52a39.67,39.67,0,1,0-48.66-43" transform="translate(-4.93 -4.58)"/><path class="b93028b8-5442-4a10-b606-ea161e6db6e1" d="M35.86,194.74" transform="translate(-4.93 -4.58)"/><path class="b93028b8-5442-4a10-b606-ea161e6db6e1" d="M151.54,179.52a39.67,39.67,0,0,1-48.91-38.58,41.09,41.09,0,0,1,.25-4.46,58,58,0,0,0-16.36,0,41.08,41.08,0,0,1,.26,4.46,39.68,39.68,0,0,1-48.92,38.58" transform="translate(-4.93 -4.58)"/><path class="b93028b8-5442-4a10-b606-ea161e6db6e1" d="M153.54,194.74" transform="translate(-4.93 -4.58)"/><path class="ed423f2e-13dd-4632-b856-4715e1b47b04" d="M37.86,179.52a39.68,39.68,0,0,0,48.92-38.58,41.08,41.08,0,0,0-.26-4.46" transform="translate(-4.93 -4.58)"/><path class="ed423f2e-13dd-4632-b856-4715e1b47b04" d="M102.88,136.48a41.09,41.09,0,0,0-.25,4.46,39.67,39.67,0,0,0,48.91,38.58" transform="translate(-4.93 -4.58)"/><polygon class="b8d30b23-3d5d-4e6f-a178-181965bf796a" points="6.96 0 15.23 33.41 2.5 24.82 21.11 71.86 14.75 39.08 27.64 48.05 6.96 0"/></svg>